{
    "asset": {
        "version": "2.0",
        "generator": "Open Asset Import Library (assimp v5.2.cf7d3637)"
    },
    "extensionsUsed": [
        "KHR_materials_volume",
        "FB_ngon_encoding"
    ],
    "accessors": [
        {
            "bufferView": 0,
            "byteOffset": 0,
            "componentType": 5126,
            "count": 29997,
            "type": "VEC3",
            "max": [
                0.7925099730491638,
                1.0025800466537476,
                0.5500990152359009
            ],
            "min": [
                -0.7948830127716065,
                -1.0008800029754639,
                -0.5505579710006714
            ]
        },
        {
            "bufferView": 1,
            "byteOffset": 0,
            "componentType": 5126,
            "count": 29997,
            "type": "VEC3",
            "max": [
                0.9999999403953552,
                1.0,
                0.9999998211860657
            ],
            "min": [
                -1.0,
                -0.9999995231628418,
                -1.0
            ]
        },
        {
            "bufferView": 2,
            "byteOffset": 0,
            "componentType": 5126,
            "count": 29997,
            "type": "VEC2",
            "max": [
                1.0,
                1.0
            ],
            "min": [
                0.000003337860107421875,
                0.00446319580078125
            ]
        },
        {
            "bufferView": 3,
            "byteOffset": 0,
            "componentType": 5125,
            "count": 29997,
            "type": "SCALAR",
            "max": [
                29996
            ],
            "min": [
                0
            ]
        }
    ],
    "buffers": [
        {
            "byteLength": 1079892,
            "uri": "result.bin"
        }
    ],
    "bufferViews": [
        {
            "buffer": 0,
            "byteOffset": 0,
            "byteLength": 359964,
            "target": 34962
        },
        {
            "buffer": 0,
            "byteOffset": 359964,
            "byteLength": 359964,
            "target": 34962
        },
        {
            "buffer": 0,
            "byteOffset": 719928,
            "byteLength": 239976,
            "target": 34962
        },
        {
            "buffer": 0,
            "byteOffset": 959904,
            "byteLength": 119988,
            "target": 34963
        }
    ],
    "images": [
        {
            "uri": "data:image/jpeg;base64,"
        }
    ],
    "materials": [
        {
            "name": "material",
            "pbrMetallicRoughness": {
                "baseColorTexture": {
                    "index": 0
                },
                "metallicFactor": 0.0,
                "roughnessFactor": 0.800000011920929
            },
            "doubleSided": true
        },
        {
            "name": "material"
        }
    ],
    "meshes": [
        {
            "name": "meshes[0]",
            "primitives": [
                {
                    "mode": 4,
                    "material": 0,
                    "indices": 3,
                    "attributes": {
                        "POSITION": 0,
                        "NORMAL": 1,
                        "TEXCOORD_0": 2
                    }
                }
            ]
        }
    ],
    "nodes": [
        {
            "name": "nodes[0]",
            "mesh": 0
        }
    ],
    "samplers": [
        {
            "magFilter": 9729,
            "minFilter": 9987
        }
    ],
    "scenes": [
        {
            "nodes": [
                0
            ]
        }
    ],
    "textures": [
        {
            "source": 0,
            "sampler": 0
        }
    ],
    "scene": 0
}